<?xml version="1.0" encoding="utf-8"?><svg xmlns="http://www.w3.org/2000/svg" xmlns:xlink="http://www.w3.org/1999/xlink"><symbol viewBox="0 0 24 24" id="add-point"><path d="M12 .3C5.5.3.2 5.6.2 12.1c0 6.5 5.3 11.8 11.8 11.8 6.5 0 11.8-5.3 11.8-11.8C23.8 5.6 18.5.3 12 .3zm5.6 12.5h-4.9v4.9c0 .4-.3.7-.7.7-.4 0-.7-.3-.7-.7v-4.9H6.4c-.4 0-.7-.3-.7-.7 0-.4.3-.7.7-.7h4.9V6.6c0-.4.3-.7.7-.7.4 0 .7.3.7.7v4.9h4.9c.4 0 .7.3.7.7-.1.3-.4.6-.7.6z" /></symbol><symbol viewBox="0 0 24 24" id="add-user"><path d="M19.6 18.6c-.6-1.3-2.8-2-5.7-3.1-.3-.1-.7-.3-1-.4V13c.4-.3 1.2-1.1 1.3-2.5.2-.2.3-.4.4-.8.1-.6.1-1.3-.4-1.7 0-.1.1-.1.1-.2.3-.8.9-2.3.7-3.5-.3-1.5-2.4-2-4.1-2-1.3 0-2.9.3-3.5 1.2-.5.1-.9.3-1.1.6-.7 1-.2 2.8.1 3.7v.1c-.4.5-.5 1.2-.4 1.9.1.4.2.7.4.8.1 1.4.9 2.2 1.3 2.5v2.1c-.4.1-.7.3-1.1.4-3 1.1-5.1 1.9-5.7 3.1-.9 1.8-.9 3.6-.9 3.6 0 .2.2.4.4.4H20c.2 0 .4-.2.4-.4.1-.1.1-1.9-.8-3.7z" /><path d="M23.2 10.5h-2.8v2.8c0 .4-.3.7-.7.7-.4 0-.7-.3-.7-.7v-2.8h-2.8c-.4 0-.7-.3-.7-.7s.3-.7.7-.7H19V6.3c0-.4.3-.7.7-.7.4 0 .7.3.7.7v2.8h2.8c.4 0 .7.3.7.7s-.3.7-.7.7z" /></symbol><symbol viewBox="0 0 24 24" id="arrow-down"><path d="M11.4 23.9s.1 0 0 0c.2.1.3.1.5.1s.3 0 .4-.1c0 0 .1 0 .1-.1.1-.1.2-.1.2-.2l11-12.5c.4-.4.3-1-.1-1.4-.4-.4-1-.3-1.4.1l-9.3 10.5V1c0-.6-.4-1-1-1s-1 .4-1 1v19.4L1.6 9.8c-.4-.4-1-.5-1.4-.1-.2.2-.3.5-.3.8 0 .2.1.5.2.7l11 12.5c.1.1.2.1.3.2z" /></symbol><symbol viewBox="0 0 24 24" id="arrow-left"><path d="M.142 11.517c-.017.03-.042.05-.055.08a.983.983 0 0 0 0 .804c.014.032.04.055.056.084.05.09.105.173.18.242.008.007.01.017.018.023l12.5 11a1 1 0 0 0 1.323-1.502L3.65 13H23a1 1 0 0 0 0-2H3.65l10.51-9.25a1 1 0 1 0-1.32-1.5l-12.5 11c-.01.006-.012.016-.02.023a.967.967 0 0 0-.178.244z" /></symbol><symbol viewBox="0 0 24 24" id="arrow-right"><path d="M23.756 12.483c.017-.03.042-.05.055-.08a.983.983 0 0 0 0-.804c-.013-.032-.038-.055-.055-.084a.978.978 0 0 0-.18-.242c-.008-.007-.01-.017-.018-.023l-12.5-11a1 1 0 1 0-1.32 1.5L20.247 11H.897a1 1 0 0 0 0 2h19.35l-10.51 9.25a1 1 0 1 0 1.32 1.5l12.5-11c.01-.006.012-.016.02-.023a.995.995 0 0 0 .18-.244z" /></symbol><symbol viewBox="0 0 24 24" id="arrow-up"><path d="M12.4.1s-.1 0 0 0c-.2-.1-.4-.1-.5-.1-.1 0-.3 0-.4.1 0 0-.1 0-.1.1-.1.1-.2.1-.2.2L.2 12.9c-.4.4-.3 1 .1 1.4.4.4 1 .3 1.4-.1l9.2-10.5V23c0 .6.4 1 1 1s1-.4 1-1V3.7l9.2 10.5c.4.4 1 .5 1.4.1.2-.2.3-.5.3-.8 0-.2-.1-.5-.2-.7L12.6.3c0-.1-.1-.1-.2-.2z" /></symbol><symbol viewBox="0 0 24 24" id="attachment"><path d="M12.954 18.91a1.013 1.013 0 0 0 .14 1.426 1.01 1.01 0 0 0 1.428-.14l7.728-9.426a6.596 6.596 0 0 0-.916-9.274A6.548 6.548 0 0 0 16.506.033a6.555 6.555 0 0 0-4.448 2.38L1.148 15.72a5.076 5.076 0 0 0 .704 7.134A5.043 5.043 0 0 0 5.062 24a5.067 5.067 0 0 0 3.927-1.854L19.423 9.38A3.044 3.044 0 0 0 19 5.1a3.01 3.01 0 0 0-2.228-.674 3.01 3.01 0 0 0-2.053 1.097L6.99 14.95a1.014 1.014 0 0 0 1.568 1.285l7.73-9.427a1.01 1.01 0 0 1 .684-.365 1.016 1.016 0 0 1 .883 1.654L7.42 20.86a3.044 3.044 0 0 1-4.28.425 3.044 3.044 0 0 1-.425-4.28L13.625 3.7a4.52 4.52 0 0 1 3.08-1.648c1.214-.12 2.4.24 3.34 1.013a4.566 4.566 0 0 1 .636 6.42l-7.726 9.425z" /></symbol><symbol viewBox="0 0 24 24" id="badge-correct"><path d="M12 .3C5.6.3.4 5.5.4 12S5.6 23.6 12 23.6 23.7 18.4 23.7 12 18.5.3 12 .3zm6.6 9.3l-6.9 7.5c-.2.2-.4.3-.6.3-.2 0-.5-.1-.6-.3l-4.9-4.9c-.4-.3-.4-.9 0-1.3s.9-.4 1.3 0l4.2 4.2 6.2-6.8c.3-.3.9-.3 1.2.1.4.3.4.9.1 1.2z" /></symbol><symbol viewBox="0 0 24 24" id="badge-incorrect"><path d="M12 .8C5.8.8.7 5.8.7 12s5 11.3 11.2 11.3c6.2 0 11.2-5 11.2-11.3S18.2.8 12 .8zm5.2 15.3c.3.3.3.9 0 1.2-.2.2-.4.3-.6.3-.2 0-.4-.1-.6-.3l-4-4-4.1 4.1c-.2.2-.4.3-.6.3-.2 0-.4-.1-.6-.3-.3-.3-.3-.9 0-1.2l4.1-4.1L6.7 8c-.3-.3-.3-.9 0-1.2.3-.3.9-.3 1.2 0l4.1 4.1 4-4.1c.3-.3.9-.3 1.2 0s.3.9 0 1.2l-4 4 4 4.1z" /></symbol><symbol viewBox="0 0 24 24" id="book"><path d="M0 2.5V19a.5.5 0 0 0 .5.5c6.815 0 11 1.748 11 3V4.33C9.523 2.81 4.91 2 .5 2a.5.5 0 0 0-.5.5zm3.033 4c2.6.176 4.96.627 6.646 1.272a.5.5 0 0 1-.36.934c-1.595-.61-3.852-1.038-6.354-1.208a.498.498 0 0 1-.465-.532.492.492 0 0 1 .533-.466zm0 3c2.6.176 4.96.627 6.646 1.272a.5.5 0 0 1-.36.934c-1.595-.61-3.852-1.038-6.354-1.208a.498.498 0 0 1-.465-.532.49.49 0 0 1 .533-.466zm0 3c2.6.176 4.96.627 6.646 1.272a.5.5 0 0 1-.36.935c-1.595-.61-3.852-1.04-6.354-1.21a.5.5 0 0 1-.465-.53.492.492 0 0 1 .533-.467zm0 3c2.6.176 4.96.627 6.646 1.273a.5.5 0 0 1-.358.934c-1.597-.61-3.854-1.04-6.356-1.21-.275-.017-.483-.255-.465-.53s.246-.49.533-.467zM23.5 2c-4.412 0-9.024.81-11 2.33V22.5c0-1.252 4.185-3 11-3a.5.5 0 0 0 .5-.5V2.5a.5.5 0 0 0-.5-.5zm-2.467 14.498c-2.5.17-4.758.598-6.354 1.21a.502.502 0 0 1-.647-.29.5.5 0 0 1 .288-.645c1.69-.646 4.048-1.098 6.646-1.273.288-.02.514.19.533.467a.5.5 0 0 1-.467.53zm0-3c-2.5.17-4.758.598-6.354 1.21a.502.502 0 0 1-.647-.29.5.5 0 0 1 .288-.646c1.69-.646 4.048-1.097 6.646-1.272.288-.02.514.19.533.466a.5.5 0 0 1-.467.532zm0-3c-2.5.17-4.758.598-6.354 1.208a.502.502 0 0 1-.647-.288.5.5 0 0 1 .288-.646c1.69-.646 4.048-1.097 6.646-1.272a.49.49 0 0 1 .533.466.5.5 0 0 1-.467.532zm0-3c-2.5.17-4.758.598-6.354 1.208a.502.502 0 0 1-.647-.288.5.5 0 0 1 .288-.646c1.69-.646 4.048-1.097 6.646-1.272.288-.02.514.19.533.466a.5.5 0 0 1-.467.532z" /></symbol><symbol viewBox="0 0 24 24" id="bookmark"><path d="M17.027 0H6.972a.51.51 0 0 0-.508.508V23.49a.51.51 0 0 0 .313.472.51.51 0 0 0 .553-.11L12 19.18l4.668 4.67a.506.506 0 0 0 .866-.36V.51a.507.507 0 0 0-.507-.51z" /></symbol><symbol viewBox="0 0 24 24" id="builder"><path d="M21 6v12a.5.5 0 0 0 1 0V6c0-.275-.225-.5-.5-.5s-.5.225-.5.5zM17.5 2h-11a.5.5 0 0 0 0 1h11a.5.5 0 0 0 0-1zM3 18V6c0-.275-.225-.5-.5-.5S2 5.725 2 6v12a.5.5 0 0 0 1 0zM17.5 21h-11a.5.5 0 0 0 0 1h11a.5.5 0 0 0 0-1zM21.5 5C22.88 5 24 3.878 24 2.5S22.88 0 21.5 0 19 1.122 19 2.5 20.12 5 21.5 5zM2.5 0C1.12 0 0 1.122 0 2.5S1.12 5 2.5 5 5 3.878 5 2.5 3.88 0 2.5 0z" /><circle cx="21.5" cy="21.5" r="2.5" /><circle cx="2.5" cy="21.5" r="2.5" /><path d="M14.59 9.873V6.62H4.736v7.508H9.83v3.255h9.854v-7.51H14.59zm-8.854 3.255v-5.51h7.854v5.51H5.736zm12.948 3.255H10.83v-2.255h3.76v-3.255h4.094v5.51z" /></symbol><symbol viewBox="0 0 24 24" id="caret-down"><path d="M23.49 5.324c-.586-.493-1.537-.412-2.03.17L12 14.758l-9.46-9.26c-.492-.585-1.442-.667-2.03-.17a1.44 1.44 0 0 0-.17 2.027l10.56 10.56a1.437 1.437 0 0 0 2.2 0l10.56-10.56a1.442 1.442 0 0 0-.17-2.03z" /></symbol><symbol viewBox="0 0 24 24" id="caret-left"><path d="M8.672 11.992l9.268-9.467c.605-.515.68-1.425.168-2.03-.492-.584-1.442-.666-2.03-.17L5.507 10.893a1.44 1.44 0 0 0 .002 2.2L16.078 23.66a1.443 1.443 0 0 0 1.86-2.202l-9.266-9.466z" /></symbol><symbol viewBox="0 0 24 24" id="caret-right"><path d="M17.938 10.892L7.372.324c-.585-.493-1.54-.412-2.032.17a1.443 1.443 0 0 0 .17 2.03l9.265 9.468L5.51 21.46A1.443 1.443 0 0 0 6.44 24c.34 0 .67-.12.933-.34L17.94 13.09a1.438 1.438 0 0 0-.002-2.2z" /></symbol><symbol viewBox="0 0 24 24" id="caret-up"><path d="M23.652 16.297L12.877 5.52c-.335-.395-.826-.495-1.14-.52-.44.006-.85.205-1.125.547L.325 16.322a1.472 1.472 0 0 0 1.143 2.392c.447 0 .864-.2 1.144-.547l9.17-9.393 9.626 9.418c.504.598 1.472.68 2.072.174.62-.522.696-1.452.172-2.07z" /></symbol><symbol viewBox="0 0 24 24" id="check"><path d="M23.39.25c-.627-.444-1.566-.278-2.007.347L7.488 20.32l-5.03-5.03c-.544-.544-1.492-.545-2.037 0a1.442 1.442 0 0 0 0 2.036l6.24 6.24a1.44 1.44 0 0 0 2.196-.188l14.88-21.122c.458-.65.302-1.55-.346-2.006z" /></symbol><symbol viewBox="0 0 24 24" id="classroom"><path d="M4.05 13c1.378 0 2.5-1.122 2.5-2.5S5.427 8 4.05 8a2.503 2.503 0 0 0-2.5 2.5c0 1.378 1.12 2.5 2.5 2.5zM.05 14.5c0 2.39.16 4.59 2 5.313V24h4v-4.187c1.84-.725 2-2.925 2-5.313V14h-8v.5zM20.05 13c1.378 0 2.5-1.122 2.5-2.5S21.427 8 20.05 8a2.503 2.503 0 0 0-2.5 2.5c0 1.378 1.12 2.5 2.5 2.5zM16.05 14v.5c0 2.39.16 4.59 2 5.313V24h4v-4.187c1.84-.725 2-2.925 2-5.313V14h-8zM12.05 5c1.378 0 2.5-1.122 2.5-2.5S13.427 0 12.05 0a2.503 2.503 0 0 0-2.5 2.5c0 1.378 1.12 2.5 2.5 2.5zM16.05 6h-8v.5c0 2.39.16 4.59 2 5.313V16h4v-4.187c1.84-.725 2-2.925 2-5.313V6z" /></symbol><symbol viewBox="0 0 24 24" id="create"><path d="M20.5 4.3C18.2 2 15.2.8 12 .8S5.8 2 3.5 4.3c-4.7 4.7-4.7 12.3 0 17 .5.4 1.1.7 1.8.7s1.3-.3 1.8-.7c1-1 1-2.6 0-3.5-.2-.2-.2-.5 0-.7.2-.2.5-.2.7 0l4.2 4.2c1.1 1.1 2.6 1.8 4.2 1.8s3.1-.6 4.2-1.8c4.8-4.7 4.8-12.3.1-17zm-9.2 3.5c-.6.6-1.5.6-2.1 0-.6-.6-.6-1.5 0-2.1.6-.6 1.5-.6 2.1 0 .6.6.6 1.5 0 2.1zm3.9-1.1c.6-.6 1.5-.6 2.1 0 .6.6.6 1.5 0 2.1-.6.6-1.5.6-2.1 0-.6-.5-.6-1.5 0-2.1zm2.5 12.4c-.8.8-2 .8-2.8 0-.8-.8-.8-2 0-2.8.8-.8 2-.8 2.8 0 .7.8.7 2 0 2.8zm2-5.6c-.4.4-1 .4-1.4 0-.4-.4-.4-1 0-1.4.4-.4 1-.4 1.4 0 .4.3.4 1 0 1.4z" /></symbol><symbol viewBox="0 0 24 24" id="dashboard"><path d="M0 19c0 1.38 1.12 2.5 2.5 2.5h19c1.377 0 2.5-1.12 2.5-2.5V8.5H0V19zm16-8a.5.5 0 0 1 .5-.5h3a.5.5 0 0 1 .5.5v3a.5.5 0 0 1-.5.5h-3a.5.5 0 0 1-.5-.5v-3zm0 5a.5.5 0 0 1 .5-.5h3a.5.5 0 0 1 .5.5v3a.5.5 0 0 1-.5.5h-3a.5.5 0 0 1-.5-.5v-3zm-6-5a.5.5 0 0 1 .5-.5h3a.5.5 0 0 1 .5.5v3a.5.5 0 0 1-.5.5h-3a.5.5 0 0 1-.5-.5v-3zm0 5a.5.5 0 0 1 .5-.5h3a.5.5 0 0 1 .5.5v3a.5.5 0 0 1-.5.5h-3a.5.5 0 0 1-.5-.5v-3zm-6-5a.5.5 0 0 1 .5-.5h3a.5.5 0 0 1 .5.5v3a.5.5 0 0 1-.5.5h-3A.5.5 0 0 1 4 14v-3zm0 5a.5.5 0 0 1 .5-.5h3a.5.5 0 0 1 .5.5v3a.5.5 0 0 1-.5.5h-3A.5.5 0 0 1 4 19v-3zM21.5 2.5h-19C1.122 2.5 0 3.62 0 5v2.5h24V5c0-1.38-1.123-2.5-2.5-2.5zM4 6.5a1 1 0 1 1 0-2 1 1 0 0 1 0 2zm3 0a1 1 0 1 1 0-2 1 1 0 0 1 0 2zm3 0a1 1 0 1 1 0-2 1 1 0 0 1 0 2z" /></symbol><symbol viewBox="0 0 24 24" id="delete"><path d="M19.1 3.7h-2.8C16.2 1.8 14.6.2 12.6.2h-1.3c-2 0-3.6 1.5-3.7 3.5H4.9c-.7 0-1.2.6-1.2 1.2 0 .7.6 1.2 1.2 1.2h14.3c.7 0 1.2-.6 1.2-1.2 0-.7-.6-1.2-1.3-1.2zm-7.7-1.5h1.3c.9 0 1.5.6 1.7 1.5H9.7c.1-.8.8-1.5 1.7-1.5zM18.6 7.8H5.1c-.3 0-.6.2-.8.4-.2.2-.3.5-.3.8l1.1 13.8c0 .6.5 1 1.1 1h11.4c.6 0 1-.4 1.1-1L19.6 9c0-.3-.1-.6-.3-.8-.1-.2-.4-.4-.7-.4zM9 19c0 .3-.4.6-.8.6s-.8-.3-.8-.6v-7c0-.3.4-.6.8-.6s.8.3.8.6v7zm3.6 0c0 .3-.4.6-.8.6s-.8-.3-.8-.6v-7c0-.3.4-.6.8-.6s.8.3.8.6v7zm3.7-.1c0 .3-.4.6-.8.6-.5 0-.8-.3-.8-.6v-7c0-.3.4-.6.8-.6.5 0 .8.3.8.6v7z" /></symbol><symbol viewBox="0 0 40 40" id="device-rotate"><path d="M37.428 9.74h-9c-1.38 0-2.5 1.122-2.5 2.5v19c0 1.378 1.12 2.5 2.5 2.5h9c1.377 0 2.5-1.122 2.5-2.5v-19c0-1.378-1.123-2.5-2.5-2.5zm-7 2h5a.5.5 0 0 1 0 1h-5a.5.5 0 0 1 0-1zm2.5 20.5a1 1 0 1 1 0-2 1 1 0 0 1 0 2zm6-3.5h-12v-14h12v14zM.016 22.24v9c0 1.38 1.122 2.5 2.5 2.5h19c1.38 0 2.5-1.12 2.5-2.5v-9c0-1.378-1.12-2.5-2.5-2.5h-19a2.503 2.503 0 0 0-2.5 2.5zm2 7v-5a.5.5 0 0 1 1 0v5a.5.5 0 0 1-1 0zm20.5-2.5a1 1 0 1 1-2 0 1 1 0 0 1 2 0zm-3.5-6v12h-14v-12h14zM10.4 9.427c.34-.067.674-.006.944.176.28.188.473.486.543.84l.598 3.007 2.014-2.41c.026-.053.05-.107.084-.158a6.397 6.397 0 0 1 8.864-1.763c.586.392.746 1.187.354 1.773s-1.188.743-1.773.352a3.834 3.834 0 0 0-5.167.854c-.02.036-.037.075-.06.112L14.757 14.9l3.028-.604c.73-.146 1.387.285 1.53 1.002.14.714-.302 1.362-1.03 1.507l-7.202 1.432a.253.253 0 0 1-.3-.2L9.37 10.94c-.14-.704.313-1.37 1.03-1.513z" /></symbol><symbol viewBox="0 0 24 24" id="display"><path d="M5.96 4.18L-.07 20.057h2.29l1.537-4.164h6.18l1.538 4.164h2.288L7.775 4.178H5.96zm3.227 9.67H4.52l2.34-6.322 2.327 6.32zM23.788 19.453a6.745 6.745 0 0 1-.207-1.025 9.06 9.06 0 0 1-.06-1.082V11.89c0-1.303-.435-2.326-1.29-3.04-.83-.693-1.926-1.044-3.257-1.044-1.337 0-2.46.366-3.34 1.087-.916.75-1.355 1.63-1.307 2.61l.15.51 1.944.018v-.478c0-.47.216-.863.66-1.203.484-.37 1.086-.55 1.84-.55.794 0 1.407.19 1.824.558.406.36.604.855.604 1.512v.9h-1.976c-1.593 0-2.89.34-3.854 1.008-1.016.707-1.53 1.666-1.53 2.85 0 1.096.35 1.988 1.042 2.65.688.66 1.645.994 2.846.994.932 0 1.786-.213 2.54-.634a5.88 5.88 0 0 0 1.024-.726c.035.23.085.487.147.77l.084.372h2.287l-.17-.6zm-7.632-2.782c0-.544.262-.997.802-1.382.582-.414 1.388-.624 2.396-.624h1.996v1.733c-.265.52-.67.942-1.24 1.29-.598.364-1.302.55-2.09.55-.615 0-1.07-.146-1.396-.444-.314-.29-.468-.656-.468-1.122z" /></symbol><symbol viewBox="0 0 24 24" id="document"><path d="M21.973 6.318a.462.462 0 0 0-.1-.162L15.875.158a.5.5 0 0 0-.35-.158h-13A.53.53 0 0 0 2 .51v23c0 .277.25.49.525.49h19a.47.47 0 0 0 .475-.49v-17a.5.5 0 0 0-.027-.192zM16 1.718L20.318 6H16V1.718zM3 23V1h12v5.51c0 .277.25.49.525.49H21v16H3z" /><path d="M15.505 11.035a.5.5 0 0 0-.918-.098l-2.68 4.913-1.528-1.527a.5.5 0 0 0-.8.13l-2.502 5c-.077.155-.07.25.02.398.093.148.255.15.427.15h10c.157 0 .306.014.4-.112s.124-.246.08-.396l-2.5-8.457zM8.335 19l1.827-3.568 1.51 1.554c.11.112.27.183.425.163a.48.48 0 0 0 .367-.245l2.423-4.523L16.857 19H8.334zM9.025 11.176c1.103 0 2-.897 2-2s-.897-2-2-2-2 .897-2 2 .898 2 2 2zm0-3a1 1 0 1 1 0 2 1 1 0 0 1 0-2z" /></symbol><symbol viewBox="0 0 24 24" id="document-pdf"><path d="M10.28 14.05c.44-.24.888-.455 1.34-.644a13.1 13.1 0 0 1-1.284-.917c.01.533-.008 1.055-.055 1.56zM7.042 17.924c-.133.162-.17.303-.116.417.122.258.595.317.83-.004a7.694 7.694 0 0 0 1.08-2.137c-.956.75-1.546 1.42-1.794 1.724zM8.267 7.43c-.105 0-.268.086-.36.25s-.08.34.036.53c.336.553.7 1.074 1.092 1.56a14.484 14.484 0 0 0-.584-2.15c-.07-.19-.152-.19-.183-.19zM16.826 13.434a10.812 10.812 0 0 0-2.502.193c1.05.39 1.982.57 2.656.652l.07.003c.266 0 .3-.238.3-.342.004-.08-.014-.486-.524-.506z" /><path d="M22 6.146l-6-6A.504.504 0 0 0 15.646 0h-13a.5.5 0 0 0-.5.5v23a.5.5 0 0 0 .5.5h19a.5.5 0 0 0 .5-.5v-17A.5.5 0 0 0 22 6.146zm-5.14 9.125a12.967 12.967 0 0 1-4.097-1.228c-.913.312-1.808.738-2.664 1.27-.278 1.38-.794 2.595-1.536 3.614-.3.41-.746.645-1.226.645-.56 0-1.087-.32-1.315-.798-.225-.473-.137-1.01.242-1.48.348-.427 1.312-1.513 2.927-2.585.156-.98.188-2.04.093-3.162A14.908 14.908 0 0 1 7.088 8.73c-.303-.5-.322-1.062-.05-1.542.26-.46.74-.76 1.23-.76.507 0 .926.316 1.12.844.15.408.646 1.86.855 3.812.79.745 1.666 1.376 2.607 1.88a12 12 0 0 1 4.014-.527c.994.037 1.502.797 1.486 1.526-.014.83-.645 1.415-1.49 1.308zM15.645 6.5v-6l6 6h-6z" /></symbol><symbol viewBox="0 0 24 24" id="edit-profile"><path d="M12.3 18.9l4.9-4.9c-.8-.5-2-.9-3.3-1.3l-1.8-.6v-1.8c.5-.3 1.3-1.1 1.4-2.9.4-.2.6-.7.6-1.4 0-.6-.2-1-.5-1.3.2-.6.6-1.6.4-2.7C13.7.7 11.8.2 10.4.2 9.1.2 7.5.6 6.9 1.5c-.5.2-.9.3-1.1.6-.6.7-.3 2-.1 2.8-.1 0-.2.2-.3.3-.1.2-.2.6-.2.9 0 .6.2 1.1.6 1.3.1 1.7 1 2.5 1.4 2.8V12l-1.8.6c-2.3.8-4.1 1.4-4.5 2.5-.5 1.4-.5 4-.5 4.1 0 .1 0 .3.1.3.1.1.2.1.3.1H12l.2-.6c0 .1.1 0 .1-.1zM18 14.6l-4.5 4.5 3.2 3.1 4.6-4.7-3.1-3.1zM12.1 23c0 .2 0 .4.1.5.1.1.2.1.3.1h.1l3.1-.9-2.7-2.8-.9 3.1zM23.6 14.6l-2.4-2.4c-.2-.2-.5-.2-.7 0l-1.6 1.6 3.1 3.1 1.6-1.6c.1-.1.1-.2.1-.3.1-.2 0-.3-.1-.4z" /></symbol><symbol viewBox="0 0 28 28" id="ellipsis"><circle cx="5" cy="14" r="2.5" /><path class="bvst0" d="M5 17c-1.654 0-3-1.346-3-3s1.346-3 3-3 3 1.346 3 3-1.346 3-3 3zm0-5c-1.103 0-2 .897-2 2s.897 2 2 2 2-.897 2-2-.897-2-2-2z" /><circle cx="14" cy="14" r="2.5" /><path class="bvst0" d="M14 17c-1.654 0-3-1.346-3-3s1.346-3 3-3 3 1.346 3 3-1.346 3-3 3zm0-5c-1.103 0-2 .897-2 2s.897 2 2 2 2-.897 2-2-.897-2-2-2z" /><g><circle cx="23" cy="14" r="2.5" /><path class="bvst0" d="M23 17c-1.654 0-3-1.346-3-3s1.346-3 3-3 3 1.346 3 3-1.346 3-3 3zm0-5c-1.103 0-2 .897-2 2s.897 2 2 2 2-.897 2-2-.897-2-2-2z" /></g></symbol><symbol viewBox="0 0 24 24" id="erase"><path d="M20.563 24H5.125a.513.513 0 0 1 0-1.03h15.438a.514.514 0 0 1 0 1.03zM4.64 12.47l-2.878 2.914c-1.012 1.01-1.012 2.72-.02 3.71l1.455 1.646c.098.11.238.173.385.173h5.822a.513.513 0 0 0 .373-.16l1.534-1.613-6.67-6.67zM23.147 6.273l-5.82-5.82A1.54 1.54 0 0 0 16.235 0h-.002c-.41 0-.8.16-1.09.452L4.972 10.62c-.2.2-.2.526 0 .728l7.28 7.278a.512.512 0 0 0 .727 0l10.167-10.17c.292-.29.453-.68.453-1.09 0-.415-.16-.8-.453-1.093z" /></symbol><symbol viewBox="0 0 24 24" id="evaluation-criteria"><path d="M18.5 20.9h-12c-.3 0-.5.2-.5.5v2c0 .3.2.5.5.5h12c.3 0 .5-.2.5-.5v-2c0-.3-.2-.5-.5-.5zM19.2 7.5l-4.7-2.2.4-4.7c0-.2-.1-.4-.3-.5-.2-.1-.4 0-.6.1l-3 3-4.2-1.7c-.2-.1-.4 0-.5.1-.2.2-.2.4-.1.6l1.7 4.3-3 3c-.2.1-.2.3-.1.5s.3.3.5.3l4.7-.4 1.9 4.2L8 15v4.9h9V15l-3.9-1 .8-4.7 5.2-.9c.2 0 .4-.2.4-.4s-.1-.4-.3-.5z" /></symbol><symbol viewBox="0 0 24 24" id="exclamation"><path d="M23.6 19.6c.3.5.3 1.1 0 1.6s-.9.8-1.4.8H2.1c-.6 0-1.1-.3-1.4-.8-.3-.5-.3-1.1 0-1.6l10-18.4c.3-.5.9-.9 1.5-.9s1.2.3 1.5.9l9.9 18.4zM14 7.4c0-.1 0-.2-.1-.2-.1-.2-.2-.2-.3-.2h-2.9c-.1 0-.2.1-.3.1-.1.1-.1.2-.1.3l.2 6c0 .2.2.3.4.3h2.4c.2 0 .4-.1.4-.3l.3-6zm-.2 8.4c0-.2-.2-.4-.4-.4h-2.5c-.2 0-.4.2-.4.4v2.5c0 .2.2.4.4.4h2.5c.2 0 .4-.2.4-.4v-2.5z" /></symbol><symbol viewBox="0 0 24 24" id="expand"><path d="M23.618.4a1.33 1.33 0 0 0-.945-.39h-.007L17.35 0h-.002c-.732 0-1.33.595-1.33 1.328a1.333 1.333 0 0 0 1.328 1.334l2.11.006L2.67 19.39l.003-2.11c0-.735-.593-1.332-1.33-1.333H1.34c-.732 0-1.332.594-1.332 1.328L0 22.6v.018a1.334 1.334 0 0 0 1.33 1.317l5.325.01h.002c.73 0 1.33-.594 1.332-1.328 0-.736-.598-1.333-1.33-1.334l-2.112-.004L21.326 4.56l-.002 2.103a1.33 1.33 0 0 0 1.327 1.333h.006a1.33 1.33 0 0 0 1.33-1.33l.01-5.218A1.33 1.33 0 0 0 23.618.4z" /></symbol><symbol viewBox="0 0 24 24" id="facebook"><path d="M12 0C5.4 0 0 5.4 0 12s5.4 12 12 12 12-5.4 12-12S18.6 0 12 0zm3.6 11.5h-2.1v7h-3v-7h-2v-2h2V8.3c0-1.1.4-2.8 2.6-2.8h2.4v2.3h-1.4c-.2 0-.6.1-.6.6v1h2.3l-.2 2.1z" /></symbol><symbol viewBox="0 0 24 24" id="flip-x"><path d="M4.6 12c0 .3.2.5.5.5h15c.3 0 .5-.2.5-.5s-.2-.5-.5-.5h-15c-.2 0-.5.2-.5.5zM19.2 23.9h-14c-.4 0-.7-.2-.9-.5-.3-.4 0-.9.2-1.1l7.1-7.1c.4-.4 1-.4 1.4 0l7.1 7.1v.2c.1.1.1.3.1.4v.3l-.1.1c-.1.4-.5.6-.9.6zm-14-1h14c0-.1 0-.1-.1-.1l-6.9-6.9-7 7zM4.7.8c-.1.2 0 .4.1.6l7 7c.2.2.5.2.7 0l7-7c.1-.1.1-.2.1-.4V.8c-.1-.2-.3-.3-.5-.3h-14c-.2 0-.3.1-.4.3z" /></symbol><symbol viewBox="0 0 24 24" id="flip-y"><path d="M11.8 4.2c-.3 0-.5.2-.5.5v15c0 .3.2.5.5.5s.5-.2.5-.5v-15c-.1-.3-.2-.5-.5-.5zM1.1 4.3C1 4.2.8 4.2.6 4.2c-.2.1-.4.4-.4.6v14c0 .2.1.4.3.5h.2c.1 0 .3-.1.4-.1l7-7c.2-.2.2-.5 0-.7l-7-7.2zM23.1 19.7h-.3c-.2 0-.5 0-.8-.2l-7-7c-.4-.4-.4-1 0-1.4L22.1 4c.3-.2.6-.2.8-.2h.1l.1.1c.4.2.6.6.6.8v14c0 .4-.2.8-.6.9v.1zm-.4-1l.1-13.9h-.1l-6.9 6.9 6.9 7z" /></symbol><symbol viewBox="0 0 24 24" id="fullscreen"><path d="M22.5 7.67c.793 0 1.5-.645 1.5-1.438v-4.79c0-.78-.63-1.424-1.433-1.437L17.777 0a1.438 1.438 0 1 0 0 2.876h1.326L12.03 9.95 4.963 2.883l1.315.002A1.44 1.44 0 0 0 7.298.432 1.443 1.443 0 0 0 6.28.01L1.485 0C.705 0 .062.63.045 1.437L.043 6.23c0 .792.685 1.438 1.478 1.44.792 0 1.48-.644 1.48-1.437V4.907l7.076 7.075L3 19.06v-1.323c0-.793-.707-1.438-1.5-1.438S0 16.942 0 17.735v4.793C0 23.322.688 24 1.48 24h4.314c.793 0 1.438-.707 1.438-1.5S6.588 21 5.795 21h-.843l7.077-7.076L19.103 21H17.78c-.794 0-1.44.707-1.44 1.5s.647 1.5 1.44 1.5h4.796c.386 0 .742-.166 1.012-.438.285-.285.412-.698.412-1.08v-4.79c0-.792-.707-1.437-1.5-1.437S21 16.9 21 17.693v1.36l-7.07-7.07L21 4.913v1.32c0 .792.707 1.437 1.5 1.437z" /></symbol><symbol viewBox="0 0 24 24" id="gear"><path d="M23.5 10h-2.855c-.2-.79-.453-1.667-.777-2.332L21.9 5.636a.5.5 0 0 0 0-.708l-2.83-2.826a.5.5 0 0 0-.707 0l-2.033 2.03c-.664-.322-1.54-.577-2.33-.776V.5a.5.5 0 0 0-.5-.5h-3a.5.5 0 0 0-.5.5v2.856c-.79.2-1.667.454-2.33.777l-2.034-2.03a.5.5 0 0 0-.707 0L2.1 4.928a.5.5 0 0 0 0 .706L4.133 7.67c-.322.66-.578 1.54-.78 2.33H.5a.5.5 0 0 0-.5.5v3a.5.5 0 0 0 .5.5h2.854c.2.79.456 1.668.78 2.332L2.1 18.365a.504.504 0 0 0 0 .707L4.93 21.9c.187.188.52.188.706 0l2.033-2.032c.662.322 1.54.577 2.33.778V23.5a.5.5 0 0 0 .5.5h3a.5.5 0 0 0 .5-.5v-2.854c.792-.2 1.67-.456 2.33-.778l2.035 2.032a.5.5 0 0 0 .707 0l2.828-2.828a.5.5 0 0 0 0-.706l-2.032-2.033c.322-.664.578-1.54.777-2.332H23.5a.5.5 0 0 0 .5-.5v-3a.5.5 0 0 0-.5-.5zM12 16c-2.206 0-4-1.795-4-4s1.794-4 4-4c2.205 0 4 1.795 4 4s-1.795 4-4 4z" /></symbol><symbol viewBox="0 0 24 24" id="globe"><defs><path id="cfa" d="M-708-500H732V524H-708z" /></defs><clipPath id="cfb"><use xlink:href="#cfa" overflow="visible" /></clipPath><g opacity=".493" clip-path="url(#cfb)"><defs><path id="cfc" d="M-679-358h21v24h-21z" /></defs><clipPath id="cfd"><use xlink:href="#cfc" overflow="visible" /></clipPath><g clip-path="url(#cfd)"><defs><path id="cfe" d="M-679-358h21v24h-21z" /></defs><clipPath id="cff"><use xlink:href="#cfe" overflow="visible" /></clipPath><g clip-path="url(#cff)"><defs><path id="cfg" d="M-679-358h21v24h-21z" /></defs><clipPath id="cfh"><use xlink:href="#cfg" overflow="visible" /></clipPath><g clip-path="url(#cfh)"><defs><path id="cfi" d="M-679-358h21v24h-21z" /></defs><clipPath id="cfj"><use xlink:href="#cfi" overflow="visible" /></clipPath><circle clip-path="url(#cfj)" fill="none" stroke="#000" stroke-linecap="round" stroke-linejoin="round" stroke-miterlimit="10" cx="-670.015" cy="-349" r="8" /><path clip-path="url(#cfj)" fill="none" stroke="#000" stroke-linecap="round" stroke-linejoin="round" stroke-miterlimit="10" d="M-670.515-338v1.5M-669.515-338v1.5M-664.033-334.5a9.945 9.945 0 0 0-11.964 0h11.964z" /><path clip-path="url(#cfj)" fill="none" stroke="#000" stroke-linecap="round" stroke-linejoin="round" stroke-miterlimit="10" d="M-662.236-356.778c4.295 4.296 4.296 11.26 0 15.557-4.296 4.294-11.26 4.294-15.557-.002M-662.943-356.07l1.413-1.415M-678.5-340.515l1.414-1.414" /></g></g></g></g><g><path d="M11.286 17.5c4.687 0 8.5-3.813 8.5-8.5 0-4.687-3.813-8.5-8.5-8.5-4.687 0-8.5 3.813-8.5 8.5 0 4.687 3.813 8.5 8.5 8.5zm0-16c4.136 0 7.5 3.364 7.5 7.5s-3.364 7.5-7.5 7.5-7.5-3.364-7.5-7.5 3.364-7.5 7.5-7.5z" /><path d="M19.275 17.132c4.363-4.365 4.54-11.385.407-15.892l.406-.372L19.4.16l-1.405 1.415.71.707.34-.335c3.742 4.116 3.64 10.503-.335 14.478a10.43 10.43 0 0 1-7.424 3.075c-2.637 0-5.117-.977-7.054-2.74l.336-.335-.707-.707-1.413 1.413.707.708.228-.37C5.262 19.193 8 20.234 10 20.45v.602c-2 .18-3.577.878-5.14 2.048l-1.057.9h14.964l-1.344-.9C15.863 21.93 14 21.233 12 21.052v-.6c3-.23 5.34-1.386 7.275-3.32zM7.055 23c2.616-1.315 5.847-1.317 8.462 0H7.055z" /></g></symbol><symbol viewBox="0 0 24 24" id="graphing"><path d="M23.5 23H23V8.5a.5.5 0 0 0-.5-.5h-3a.5.5 0 0 0-.5.5V23h-2v-7.5a.5.5 0 0 0-.5-.5h-3a.5.5 0 0 0-.5.5V23h-2v-9.5a.5.5 0 0 0-.5-.5h-3a.5.5 0 0 0-.5.5V23H5v-4.5a.5.5 0 0 0-.5-.5h-3a.5.5 0 0 0-.5.5V23H.5a.5.5 0 0 0 0 1h23a.5.5 0 0 0 0-1z" /><path d="M3 13c.826 0 1.5-.673 1.5-1.5a1.49 1.49 0 0 0-.098-.518l3.836-3.197C8.463 7.918 8.72 8 9 8c.48 0 .9-.23 1.176-.58l3.327 1.107A1.5 1.5 0 0 0 15 10c.826 0 1.5-.673 1.5-1.5 0-.272-.078-.522-.205-.744l4.167-4.86C20.63 2.96 20.81 3 21 3c.826 0 1.5-.673 1.5-1.5a1.5 1.5 0 0 0-3 0c0 .27.078.523.204.743l-4.166 4.86A1.51 1.51 0 0 0 15 7c-.48 0-.9.23-1.177.58l-3.326-1.108A1.5 1.5 0 0 0 9 5a1.5 1.5 0 0 0-1.5 1.5c0 .182.037.356.098.518L3.76 10.215A1.487 1.487 0 0 0 3 10a1.5 1.5 0 0 0 0 3z" /></symbol><symbol viewBox="0 0 24 24" id="grip"><path d="M14.6.4H9.4c-.3 0-.5.2-.5.5v5.2c0 .3.2.5.5.5h5.2c.3 0 .5-.2.5-.5V.9c0-.3-.2-.5-.5-.5zM14.6 8.7H9.4c-.3 0-.5.3-.5.5v5.2c0 .3.2.5.5.5h5.2c.3 0 .5-.2.5-.5V9.2c0-.2-.2-.5-.5-.5zM14.6 17.1H9.4c-.3 0-.5.2-.5.5v5.2c0 .3.2.5.5.5h5.2c.3 0 .5-.2.5-.5v-5.2c0-.3-.2-.5-.5-.5z" /></symbol><symbol viewBox="0 0 24 24" id="help"><path d="M12 0C5.383 0 0 5.383 0 12s5.383 12 12 12c6.616 0 12-5.383 12-12S18.616 0 12 0zm0 19a1 1 0 1 1-.002-1.998A1 1 0 0 1 12 19zm.5-6.036V15.5a.5.5 0 0 1-1 0v-3a.5.5 0 0 1 .5-.5c1.378 0 2.5-1.12 2.5-2.5S13.378 7 12 7c-1.38 0-2.5 1.12-2.5 2.5a.5.5 0 0 1-1 0C8.5 7.57 10.07 6 12 6s3.5 1.57 3.5 3.5c0 1.76-1.307 3.22-3 3.464z" /></symbol><symbol viewBox="0 0 27.903 27.903" id="icon-placeholder"><path d="M15.064 11.602c-1.067 0-1.925.873-1.925 2.013 0 1.177.857 2.08 1.924 2.08 1.057 0 1.916-.903 1.916-2.08 0-1.14-.86-2.013-1.916-2.013z" /><path d="M0 0v27.903h27.903V0H0zm6.183 11.61h-.66v4.077h.66v.576h-2.05v-.576h.65V11.61h-.65v-.57h2.05v.57zm5.432 3.714c0 .77-1.31 1.03-2.035 1.03-1.57 0-2.7-1.208-2.7-2.732 0-1.532 1.16-2.67 2.67-2.67.63 0 1.99.228 1.99 1.035v.636h-.687v-.407c0-.46-.792-.63-1.273-.63-1.118 0-1.94.823-1.94 2.007 0 1.236.845 2.116 1.984 2.116.37 0 1.302-.134 1.302-.615v-.407h.688v.636zm3.45 1.03c-1.52 0-2.688-1.2-2.688-2.74 0-1.5 1.17-2.663 2.687-2.663 1.51 0 2.686 1.163 2.686 2.665 0 1.54-1.176 2.74-2.686 2.74zm8.894-4.745h-.66v4.653h-.726l-2.566-3.744c-.098-.15-.178-.378-.178-.378h-.023s.037.26.03.422v3.124h.673v.576h-2.064v-.576h.652V11.61h-.652v-.57h1.385l2.567 3.745c.09.148.178.378.178.378h.023s-.037-.26-.037-.422v-3.13h-.665v-.57h2.064v.57z" /></symbol><symbol viewBox="0 0 24 24" id="link"><path d="M8.92 10.684c.94-.94 2.578-.94 3.516 0l.88.876a1.24 1.24 0 0 0 1.756 0 1.238 1.238 0 0 0 0-1.755l-.878-.878A4.927 4.927 0 0 0 10.68 7.47a4.94 4.94 0 0 0-3.516 1.456l-5.71 5.71a4.98 4.98 0 0 0 0 7.03l.877.877A4.937 4.937 0 0 0 5.848 24a4.936 4.936 0 0 0 3.514-1.457l2.7-2.695a1.242 1.242 0 1 0-1.757-1.758l-2.7 2.696c-.937.94-2.574.94-3.514 0l-.88-.876a2.49 2.49 0 0 1 0-3.516l5.71-5.71z" /><path d="M16.83 15.075l5.71-5.71c.94-.94 1.457-2.188 1.457-3.515s-.517-2.577-1.457-3.514l-.878-.88A4.94 4.94 0 0 0 18.148 0c-1.33 0-2.576.517-3.515 1.456l-2.468 2.468a1.242 1.242 0 0 0 1.758 1.756l2.467-2.467a2.47 2.47 0 0 1 1.758-.73c.662 0 1.287.26 1.757.73l.88.88c.47.468.727 1.09.727 1.756 0 .663-.258 1.286-.728 1.756l-5.713 5.71c-.937.94-2.574.94-3.513 0a1.245 1.245 0 0 0-1.757 0 1.247 1.247 0 0 0 0 1.758 4.932 4.932 0 0 0 3.514 1.457c1.33 0 2.577-.514 3.516-1.455z" /></symbol><symbol viewBox="0 0 24 24" id="math"><path d="M0 3.5V11h11V0H3.5C1.57 0 0 1.57 0 3.5zM5 4a.5.5 0 0 1 1 0v2h2a.5.5 0 0 1 0 1H6v2a.5.5 0 0 1-1 0V7H3a.5.5 0 0 1 0-1h2V4zM12 24h8.5c1.93 0 3.5-1.57 3.5-3.5V12H12v12zm3-8h5a.5.5 0 0 1 0 1h-5a.5.5 0 0 1 0-1zm0 2h5a.5.5 0 0 1 0 1h-5a.5.5 0 0 1 0-1zM20.5 0H12v11h12V3.5C24 1.57 22.43 0 20.5 0zM20 7h-5a.5.5 0 0 1 0-1h5a.5.5 0 0 1 0 1zM0 20.5C0 22.43 1.57 24 3.5 24H11V12H0v8.5zm3.646-4.646a.5.5 0 0 1 .707-.707L6 16.793l1.646-1.646a.5.5 0 0 1 .707.707L6.707 17.5l1.646 1.646a.5.5 0 0 1-.707.708L6 18.207l-1.646 1.646a.5.5 0 0 1-.708-.706L5.293 17.5l-1.647-1.646z" /></symbol><symbol viewBox="0 0 24 24" id="menu"><path d="M4.785 7h14.957a1 1 0 0 0 0-2H4.785a1 1 0 0 0 0 2zM19.742 9H4.785a1 1 0 0 0 0 2h14.957a1 1 0 0 0 0-2zM19.742 13H4.785a1 1 0 0 0 0 2h14.957a1 1 0 0 0 0-2zM19.742 17H4.785a1 1 0 0 0 0 2h14.957a1 1 0 0 0 0-2z" /></symbol><symbol viewBox="0 0 24 24" id="message-error"><path d="M12.203 0l-.215.002A12.214 12.214 0 0 0 3.474 3.66C1.18 5.98-.052 9.015.002 12.21.117 18.822 5.297 24 11.795 24l.212-.002c6.726-.115 12.104-5.594 11.988-12.207C23.88 5.18 18.7 0 12.203 0zm-.725 6.26a.52.52 0 0 1 1.042 0v7.303a.52.52 0 0 1-1.042 0V6.26zm.54 11.998h-.02a1.043 1.043 0 0 1-.018-2.086H12a1.043 1.043 0 0 1 .018 2.086z" /></symbol><symbol viewBox="0 0 24 24" id="message-information"><path d="M12 0C5.383 0 0 5.382 0 12c0 6.617 5.383 12 12 12 6.616 0 12-5.383 12-12 0-6.618-5.384-12-12-12zm-.52 5.217a1.044 1.044 0 1 1 0 2.085 1.044 1.044 0 0 1 0-2.085zm3.65 14.61H8.87a.52.52 0 0 1 0-1.043h2.608v-8.35H9.913a.52.52 0 0 1 0-1.042H12c.287 0 .52.233.52.522v8.87h2.61a.52.52 0 0 1 0 1.042z" /></symbol><symbol viewBox="0 0 24 24" id="message-warning"><path d="M23.893 23.128L12.46.265c-.176-.353-.756-.353-.932 0L.055 23.212a.523.523 0 0 0 .466.754H23.48a.52.52 0 0 0 .415-.838zM11.473 8.48a.52.52 0 0 1 1.043 0v7.982a.522.522 0 0 1-1.042 0V8.48zm.523 12.47a.996.996 0 0 1 0-1.995 1 1 0 0 1 0 1.995z" /></symbol><symbol viewBox="0 0 24 24" id="messaging"><path d="M16.5 8.45c.477 0 .94.046 1.398.116.067-.378.102-.77.102-1.18 0-4.1-4.037-7.435-9-7.435S0 3.287 0 7.387c0 1.962.855 3.826 2.36 5.178l-1.794 3.14A.498.498 0 0 0 1 16.45a.528.528 0 0 0 .186-.034l4.84-1.937c.435.123.887.217 1.348.28.02.002.064-.005.074.004.076 0 .32-.002.68-.022.677-3.513 4.23-6.29 8.372-6.29z" /><path d="M16.5 9.45c-4.065 0-7.5 2.978-7.5 6.5 0 3.356 2.88 6.225 6.434 6.573a7.58 7.58 0 0 0 3.578-.534l3.812 1.43c.185.07.406.023.547-.135a.495.495 0 0 0 .077-.557l-1.324-2.65C23.327 18.99 24 17.568 24 15.95c0-3.522-3.435-6.5-7.5-6.5z" /></symbol><symbol viewBox="0 0 24 24" id="minus"><path d="M22.562 10.02L1.44 10a1.44 1.44 0 0 0-1.02 2.458c.272.27.634.422 1.02.422l21.12.02a1.44 1.44 0 0 0 .002-2.88z" /></symbol><symbol viewBox="0 0 24 24" id="my-content"><path d="M23.55 4.36H9.755L7.902 2.51a.496.496 0 0 0-.353-.147h-7a.5.5 0 0 0-.5.5v19a.5.5 0 0 0 .5.5h23a.5.5 0 0 0 .5-.5v-17a.5.5 0 0 0-.5-.5z" /></symbol><symbol viewBox="0 0 24 24" id="notebook"><path d="M2.805 1.5v21a1.5 1.5 0 0 0 1.5 1.5h1.5V0h-1.5a1.5 1.5 0 0 0-1.5 1.5zM21.305 0h-14.5v24h14.5a.5.5 0 0 0 .5-.5V.5a.5.5 0 0 0-.5-.5zm-3.5 8.5a.5.5 0 0 1-.5.5h-6a.5.5 0 0 1-.5-.5v-3a.5.5 0 0 1 .5-.5h6a.5.5 0 0 1 .5.5v3z" /></symbol><symbol viewBox="0 0 24 24" id="notification"><path d="M23.5 18.03c-1.38 0-2.5-1.12-2.5-2.5v-4.5c0-3.64-2.24-6.95-5.604-8.326A3.474 3.474 0 0 0 12 .03a3.525 3.525 0 0 0-3.4 2.674C5.24 4.08 3 7.388 3 11.03v4.5c0 1.38-1.122 2.5-2.5 2.5a.5.5 0 0 0 0 1h23a.5.5 0 0 0 0-1zM15 20.03H9a.5.5 0 0 0-.5.5c0 1.93 1.57 3.5 3.5 3.5s3.5-1.57 3.5-3.5a.5.5 0 0 0-.5-.5z" /></symbol><symbol viewBox="0 0 24 24" id="pdf"><path d="M10.1 14c.4-.2.9-.5 1.3-.6-.4-.3-.9-.6-1.3-.9.1.5.1 1 0 1.5zM6.9 17.9c-.1.2-.2.3-.1.4.1.3.6.3.8 0 .5-.6.8-1.3 1.1-2.1-1 .7-1.6 1.4-1.8 1.7zM8.1 7.4c-.1 0-.2.1-.3.3-.1.1-.1.3 0 .5.3.6.7 1.1 1.1 1.6-.2-1.1-.5-1.9-.6-2.2-.1-.2-.1-.2-.2-.2zM16.7 13.4c-.8 0-1.7 0-2.5.2 1 .4 2 .6 2.7.7h.1c.3 0 .3-.2.3-.3-.1-.1-.1-.5-.6-.6z" /><path d="M21.9 6.1l-6-6c-.1 0-.3-.1-.4-.1h-13c-.3 0-.5.2-.5.5v23c0 .3.2.5.5.5h19c.3 0 .5-.2.5-.5v-17c0-.1-.1-.3-.1-.4zm-5.2 9.2c-1-.1-2.5-.4-4.1-1.2-.9.3-1.8.7-2.7 1.3-.3 1.4-.8 2.6-1.5 3.6-.3.4-.7.6-1.2.6-.6 0-1.1-.3-1.3-.8-.2-.5-.1-1 .2-1.5.3-.4 1.3-1.5 2.9-2.6.2-1 .2-2 .1-3.2-.8-.8-1.6-1.8-2.2-2.8-.3-.5-.3-1 0-1.5s.7-.8 1.2-.8.9.3 1.1.8c.2.4.6 1.9.9 3.8.8.7 1.7 1.4 2.6 1.9 1.3-.4 2.7-.6 4-.5 1 0 1.5.8 1.5 1.5 0 .9-.6 1.5-1.5 1.4zm-1.2-8.8v-6l6 6h-6z" /></symbol><symbol viewBox="0 0 24 24" id="play"><path d="M21.733 11.572L2.76.072A.5.5 0 0 0 2 .5v23a.5.5 0 0 0 .76.428l18.974-11.5a.504.504 0 0 0 0-.856z" /></symbol><symbol viewBox="0 0 24 24" id="plus"><path d="M22.56 11h-9.108l.01-9.408c0-.795-.646-1.585-1.44-1.585s-1.44.862-1.44 1.655L10.572 11H1.44C.646 11 0 11.706 0 12.5c0 .795.646 1.5 1.44 1.5h9.13l-.01 8.77c0 .386.185.6.486.842.25.2.422.14.954.14v-.003s1.44-.238 1.44-1.03l.01-8.72h9.11c.794 0 1.44-.705 1.44-1.5 0-.794-.646-1.5-1.44-1.5z" /></symbol><symbol viewBox="0 0 24 24" id="print"><path d="M21.5 8h-19C1.12 8 0 9.122 0 10.5v6C0 17.88 1.12 19 2.5 19H5v2.5a.5.5 0 0 0 .5.5h13a.5.5 0 0 0 .5-.5V19h2.5c1.377 0 2.5-1.12 2.5-2.5v-6C24 9.122 22.877 8 21.5 8zm-18 5a1.5 1.5 0 0 1 0-3c.826 0 1.5.674 1.5 1.5 0 .828-.674 1.5-1.5 1.5zM18 21H6v-5h12v5zM5.5 7h13a.5.5 0 0 0 .5-.5v-1a.504.504 0 0 0-.146-.354l-3-3A.504.504 0 0 0 15.5 2h-10a.5.5 0 0 0-.5.5v4a.5.5 0 0 0 .5.5zm10-3.5l2 2h-2v-2z" /></symbol><symbol viewBox="0 0 24 24" id="profile"><path d="M22.947 19.22c-.735-1.47-3.243-2.392-6.715-3.67-.4-.145-.812-.297-1.232-.454v-2.408c.44-.373 1.38-1.346 1.49-2.934.226-.192.404-.524.508-.963.166-.704.084-1.54-.414-2.036l.09-.232c.385-.966 1.1-2.765.816-4.177C17.145.615 14.687 0 12.687 0c-1.55 0-3.436.39-4.03 1.46-.597.067-1.058.315-1.373.74-.87 1.17-.238 3.25.1 4.37.018.054.035.113.052.166-.515.493-.603 1.34-.434 2.055.103.44.282.772.51.964.11 1.588 1.05 2.56 1.488 2.934v2.408c-.42.157-.833.31-1.234.456-3.472 1.276-5.98 2.198-6.713 3.667C.013 21.3 0 23.41 0 23.5a.5.5 0 0 0 .5.5h23a.5.5 0 0 0 .5-.5c0-.09-.012-2.2-1.053-4.28z" /></symbol><symbol viewBox="0 0 24 24" id="quicklist"><path d="M12 0C5.386 0 0 5.386 0 12c0 6.615 5.386 12 12 12s12-5.385 12-12c0-6.614-5.386-12-12-12zm6.252 12.66L8.55 17.91a.732.732 0 0 1-.364.09.826.826 0 0 1-.38-.102.758.758 0 0 1-.37-.648V6.75c0-.262.14-.51.37-.648.228-.13.51-.14.743-.01l9.702 5.25c.24.126.387.38.387.658s-.15.532-.388.66z" /></symbol><symbol viewBox="0 0 24 24" id="refresh"><path d="M23.8 13.9l-2.4-4.1c0-.1-.1-.1-.1-.2-.2-.2-.4-.3-.6-.3-.3 0-.6.1-.8.4l-3.2 3.8c-.4.4-.3 1 .1 1.4.4.4 1 .3 1.4-.1l1.4-1.7c-.5 2.8-2.8 5.3-5.8 6-2.5.6-5.1-.1-6.9-2-.4-.4-1-.4-1.4 0-.4.4-.4 1 0 1.4 1.8 1.8 4.2 2.7 6.6 2.7.7 0 1.4-.1 2.2-.3 3.6-.8 6.3-3.8 7.2-7.1l.7 1.2c.2.3.5.5.9.5.2 0 .3 0 .5-.1.3-.4.4-1 .2-1.5zM7.5 9.6c-.5-.4-1.1-.3-1.4.1l-1.7 2c0-1.3.4-2.5 1.1-3.7 1.1-1.8 2.9-3.2 4.9-3.6 2.7-.6 5.5.3 7.3 2.3.4.4 1 .5 1.4.1.4-.4.5-1 .1-1.4-2.3-2.6-5.8-3.7-9.2-2.9-2.6.6-4.9 2.3-6.3 4.6-.6 1-1 2.1-1.2 3.3l-.6-1c-.2-.4-.8-.6-1.3-.3s-.6.9-.4 1.3l2.5 4.2c.2.3.5.5.8.5h.1c.3 0 .6-.1.8-.4L7.6 11c.3-.4.3-1.1-.1-1.4z" /></symbol><symbol viewBox="0 0 24 24" id="reset"><path d="M20.7 4.7c-2.1-1.9-4.7-2.9-7.5-2.8-3 .1-5.7 1.5-7.7 3.7-1.3 1.4-2.1 3.1-2.4 5L1.8 8.8c-.3-.5-.9-.6-1.3-.3-.5.3-.6.9-.3 1.4l3 4.5c.2.3.5.4.8.4h.1c.3 0 .6-.1.8-.3l3.5-4c.4-.4.3-1-.1-1.4-.4-.4-1-.3-1.4.1l-1.7 2c.1-1.7.7-3.1 1.8-4.4 1.6-1.8 3.8-2.9 6.2-3 2.3-.1 4.4.7 6.1 2.3C21 7.7 21.9 9.8 22 12c.1 2.3-.7 4.4-2.3 6.1-1.5 1.7-3.7 2.6-5.9 2.7-3.4.1-6.6-1.8-8-4.9-.2-.5-.8-.7-1.3-.5-.5.2-.7.8-.5 1.3 1.7 3.7 5.4 6.1 9.5 6.1h.4c2.8-.1 5.4-1.3 7.3-3.3 1.9-2.1 2.9-4.7 2.8-7.5-.1-2.8-1.3-5.4-3.3-7.3z" /></symbol><symbol viewBox="0 0 24 24" id="rotate-left"><path d="M20.4 4.5c-2-1.9-4.6-2.8-7.4-2.7-2.8.1-5.4 1.3-7.2 3.4-1.3 1.5-2.2 3.3-2.5 5.4l-1.2-2c-.3-.5-.9-.6-1.4-.3-.4.3-.5.9-.2 1.3L3.4 14c.3.5 1.1.6 1.6.1l3.4-3.9c.4-.4.3-1-.1-1.4-.5-.3-1.1-.3-1.4.2l-1.6 1.8c.3-1.6 1-3.1 2-4.3 1.5-1.7 3.6-2.6 5.8-2.7 2.2-.1 4.3.7 6 2.2 1.6 1.5 2.6 3.6 2.6 5.8.1 2.2-.7 4.3-2.2 6-1.5 1.6-3.6 2.6-5.8 2.6-.5 0-1 .5-.9 1 0 .5.5.9 1 .9 2.7-.1 5.3-1.3 7.1-3.3 1.9-2 2.8-4.6 2.7-7.4 0-2.7-1.2-5.2-3.2-7.1z" /><circle cx="13.5" cy="11.5" r="2.5" /></symbol><symbol viewBox="0 0 24 24" id="rotate-right"><path d="M3.6 4.5c2-1.9 4.6-2.8 7.4-2.7 2.8.1 5.4 1.3 7.2 3.4 1.3 1.5 2.2 3.3 2.5 5.4L22 8.7c.3-.4.9-.6 1.4-.3.4.3.6.9.3 1.4L20.6 14c-.3.5-1.1.6-1.6.1l-3.4-3.9c-.4-.4-.3-1 .1-1.4.4-.4 1-.3 1.4.1l1.6 1.8c-.3-1.6-1-3.1-2-4.3-1.5-1.7-3.6-2.6-5.8-2.7-2.3 0-4.4.7-6 2.3-1.6 1.5-2.6 3.6-2.6 5.8-.1 2.2.7 4.3 2.2 6 1.5 1.6 3.6 2.6 5.8 2.6.5 0 1 .5.9 1 0 .5-.5.9-1 .9C7.4 22.2 4.9 21 3 19 1.1 17 .2 14.4.3 11.6c.1-2.7 1.3-5.2 3.3-7.1z" /><circle cx="10.5" cy="11.5" r="2.5" /></symbol><symbol viewBox="0 0 24 24" id="rubric"><path d="M8.004 7.676l.578 1.27a8.44 8.44 0 0 1 7.868.035l.475-1.284 2.02-4.5a.498.498 0 0 0 .046-.205V.49a.5.5 0 0 0-.5-.5h-2.52v6.5a.5.5 0 0 1-1 0v-6.5h-2v6.5a.5.5 0 0 1-1 0v-6.5h-2v6.5a.5.5 0 0 1-1 0v-6.5h-2.5a.5.5 0 0 0-.5.5v2.5c0 .07.015.14.043.204l1.99 4.482zM12.48 8.99c-4.137 0-7.5 3.365-7.5 7.5s3.363 7.5 7.5 7.5 7.5-3.363 7.5-7.5-3.365-7.5-7.5-7.5zm4.8 6.39l-2.24 1.79.91 3.18c.06.2-.012.41-.182.54a.53.53 0 0 1-.3.1c-.09 0-.18-.03-.26-.08l-2.74-1.71-2.73 1.71c-.18.11-.4.102-.57-.02a.513.513 0 0 1-.18-.54l.91-3.18-2.24-1.79a.507.507 0 0 1-.16-.56c.07-.2.26-.33.47-.33h2.69l1.37-2.73c.16-.34.72-.34.89 0l1.36 2.73h2.69c.21 0 .4.13.47.33.07.2.01.42-.16.56z" /></symbol><symbol viewBox="0 0 24 24" id="science"><path d="M23.4 1.6c-.1-.1-.3-.2-.4-.1-.7.1-16.9 1.9-20.6 9.7-1.2 2.5-.9 5.4.8 8.5l-.7.7c-.3.3-.4.7-.4 1.1s.2.8.4 1.1c.3.2.7.4 1.1.4s.8-.2 1.1-.4l.7-.7c1.8 1 3.6 1.5 5.2 1.5 4.4 0 8-3.7 10.5-10.7C23 7.4 23.5 2.1 23.6 2.1c0-.2-.1-.3-.2-.5zm-18.2 19l-.7.7-.6.6c-.2.2-.5.2-.7 0-.2-.2-.2-.5 0-.7l.6-.6.7-.7 2.1-2.1V13c0-.3.2-.5.5-.5s.5.2.5.5v3.8l1.6-1.6 1.9-1.9V10c0-.3.2-.5.5-.5s.5.2.5.5v2.3l3-3V8c0-.3.2-.5.5-.5s.5.2.5.5v1h1c.3 0 .5.2.5.5s-.2.5-.5.5h-1.3l-3 3h2.3c.3 0 .5.2.5.5s-.2.5-.5.5h-3.3l-1.9 1.9-1.6 1.6h3.8c.3 0 .5.2.5.5s-.2.5-.5.5H7.3l-2.1 2.1z" /></symbol><symbol viewBox="0 0 24 24" id="search"><path d="M23.63 21.545l-7.065-7.103A9.002 9.002 0 0 0 18.29 9.12C18.29 4.09 14.2 0 9.17 0S.05 4.09.05 9.12c0 5.028 4.09 9.12 9.12 9.12 1.92 0 3.81-.62 5.365-1.756l7.054 7.09a1.434 1.434 0 0 0 2.036.006c.562-.56.563-1.474.005-2.035zM9.17 15.36c-3.442 0-6.24-2.8-6.24-6.24 0-3.44 2.798-6.24 6.24-6.24 3.44 0 6.24 2.8 6.24 6.24 0 3.44-2.8 6.24-6.24 6.24z" /></symbol><symbol viewBox="0 0 24 24" id="share"><path d="M5.002 7.997h3v10.5c0 .276.224.502.5.502h7.002c.275 0 .5-.227.5-.502v-10.5h3a.5.5 0 0 0 .355-.856L12.356.14a.514.514 0 0 0-.707 0L4.647 7.143a.5.5 0 0 0 .355.854z" /><path d="M22.975 16.998a1 1 0 0 0-1 1V22H2v-3.502a1 1 0 0 0-2 0V23a1 1 0 0 0 1 1h21.975a1 1 0 0 0 1-1v-5.002a1 1 0 0 0-1-1z" /></symbol><symbol viewBox="0 0 24 24" id="social-studies"><path d="M10.748 17.496c4.69 0 8.504-3.814 8.504-8.505 0-4.69-3.814-8.504-8.504-8.504-4.69 0-8.505 3.814-8.505 8.505 0 4.692 3.814 8.506 8.505 8.506z" /><path d="M18.885 17.13c4.367-4.37 4.47-11.396.334-15.904l.373-.373a.502.502 0 0 0 0-.707.502.502 0 0 0-.708 0L17.47 1.56a.502.502 0 0 0 .354.855.496.496 0 0 0 .354-.146l.335-.337c3.746 4.12 3.64 10.51-.335 14.487-3.978 3.98-10.37 4.08-14.488.336l.336-.336a.503.503 0 0 0 0-.71.505.505 0 0 0-.708 0l-1.415 1.42a.498.498 0 0 0 0 .704.497.497 0 0 0 .708 0l.373-.37a11.445 11.445 0 0 0 6.764 2.98v.606c-1.91.182-3.722.877-5.285 2.05a.502.502 0 0 0 .3.9h11.97a.505.505 0 0 0 .477-.342.505.505 0 0 0-.177-.56 10.418 10.418 0 0 0-5.285-2.048v-.605a11.472 11.472 0 0 0 7.137-3.316z" /></symbol><symbol viewBox="0 0 24 24" id="streaming"><path d="M.5 4H0v16h24V4H.5zM12 18c-3.31 0-6-2.69-6-6s2.69-6 6-6 6 2.69 6 6-2.69 6-6 6zM23.5 0H17v3h7V.5a.5.5 0 0 0-.5-.5zM8 0h8v3H8zM0 21v2.5a.5.5 0 0 0 .5.5H7v-3H0zM7 3V0H.5a.5.5 0 0 0-.5.5V3h7zM8 21h8v3H8zM17 21v3h6.5a.5.5 0 0 0 .5-.5V21h-7z" /><path d="M14.724 11.553l-4-2A.5.5 0 0 0 10 10v4c0 .174.09.334.236.426a.508.508 0 0 0 .488.02l4-2a.5.5 0 0 0 0-.893z" /></symbol><symbol viewBox="0 0 24 24" id="submit"><path d="M.4 10.6c-.2.1-.3.3-.3.5s.1.4.3.5l8.3 3.2L23.1 1.2.4 10.6zM9 15.7v6.8c0 .3.3.5.5.5s.3-.1.4-.2l3.3-5.6 6 3.3c.1.1.3.1.4 0l.3-.3 4-18.3L9 15.7z" /></symbol><symbol viewBox="0 0 24 24" id="twitter"><path d="M11.8 0C5.2 0-.2 5.4-.2 12s5.4 12 12 12 12-5.4 12-12-5.4-12-12-12zm5.3 9.4v.3c0 3.5-2.6 7.5-7.5 7.5-1.5 0-2.9-.4-4-1.2 1.4.2 2.8-.2 3.9-1.1-1.2 0-2.1-.8-2.5-1.8.4.1.8.1 1.2 0-1.2-.2-2.1-1.3-2.1-2.6.4.2.8.3 1.2.3-.7-.5-1.2-1.3-1.2-2.2 0-.5.1-.9.4-1.3 1.3 1.6 3.2 2.6 5.4 2.8-.1-.3-.1-.5-.1-.7 0-1.5 1.2-2.6 2.6-2.6.8 0 1.4.3 1.9.8.6-.1 2-.3 2-.3-.4.6-.7 1.7-1.2 2.1z" /></symbol><symbol viewBox="0 0 24 24" id="whiteboard"><path d="M0 16.5a.5.5 0 0 0 .5.5h10.293l-6.146 6.146a.5.5 0 0 0 .707.707l6.146-6.146V23.5a.5.5 0 0 0 1 0v-5.793l6.146 6.146a.5.5 0 0 0 .708-.706L13.207 17H23.5a.5.5 0 0 0 .5-.5V5H0v11.5zM23.5 0H.5a.5.5 0 0 0-.5.5V4h24V.5a.5.5 0 0 0-.5-.5z" /></symbol><symbol viewBox="0 0 24 24" id="x"><path d="M14.037 11.986l9.542-9.542c.56-.56.56-1.474 0-2.037-.545-.543-1.497-.542-2.038 0L12 9.95 2.458.406C1.915-.136.963-.135.422.407A1.43 1.43 0 0 0 0 1.427c0 .385.15.747.422 1.017l9.54 9.542-9.54 9.542A1.426 1.426 0 0 0 0 22.548c0 .385.15.745.42 1.015.543.545 1.494.546 2.038 0L12 14.022l9.542 9.543c.27.272.633.423 1.02.423a1.44 1.44 0 0 0 1.018-2.458l-9.543-9.542z" /></symbol><symbol viewBox="0 0 24 24" id="youtube"><path d="M8.6 13h-2c-.3 0-.6.2-.6.5s.3.5.5.5H7v2.5c0 .3.2.5.5.5s.5-.2.5-.5V14h.6c.3 0 .5-.2.5-.5s-.3-.5-.5-.5zM11.5 9c.3 0 .5-.2.5-.5v-1c0-.3-.2-.5-.5-.5s-.5.2-.5.5v1.1c0 .2.2.4.5.4z" /><path d="M12 0C5.4 0 0 5.4 0 12s5.4 12 12 12 12-5.4 12-12S18.6 0 12 0zm2 7c0-.3.2-.5.5-.5s.5.2.5.5v1.5c0 .3.2.5.5.5s.5-.2.5-.5V7c0-.3.2-.5.5-.5s.5.2.5.5v1.5c0 .8-.7 1.5-1.5 1.5S14 9.3 14 8.5V7zm-1 .5v1.1c0 .8-.7 1.5-1.5 1.5-.8-.1-1.5-.8-1.5-1.6v-1c0-.8.7-1.5 1.5-1.5s1.5.7 1.5 1.5zM6.3 3.8c.2-.2.5-.2.7.1l1.5 2 1.5-2c.2-.2.5-.3.7-.1.3.1.3.5.1.7L9 6.8v2.7c0 .3-.2.5-.5.5S8 9.8 8 9.5V6.8L6.2 4.5c-.2-.2-.2-.6.1-.7zm13.2 12.1c0 1.4-1.1 2.6-2.6 2.6H7c-1.4 0-2.5-1.2-2.5-2.6V14c0-1.4 1.1-2.5 2.5-2.5h9.9c1.4 0 2.6 1.1 2.6 2.6v1.8z" /><path d="M11.5 14c-.3 0-.5.2-.5.5v1c0 .3-.2.5-.5.5s-.5-.2-.5-.5v-1c0-.3-.2-.5-.5-.5s-.5.2-.5.5v1c0 .8.7 1.5 1.5 1.5s1.5-.7 1.5-1.5v-1c0-.3-.2-.5-.5-.5zM14 15v-1.5c0-.3-.2-.5-.5-.5s-.5.2-.5.5v3c0 .3.2.5.5.5h.5c.6 0 1-.4 1-1s-.4-1-1-1zM18 15c0-.6-.4-1-1-1s-1 .4-1 1v1c0 .6.4 1 1 1h.5c.3 0 .5-.2.5-.5s-.2-.5-.5-.5H17c.6 0 1-.4 1-1z" /></symbol><symbol viewBox="0 0 24 24" id="assign"><path d="M17.9,15.2C17.9,15.1,17.9,15.1,17.9,15.2c-0.6-1.2-2.5-1.9-5.2-2.9c-0.3-0.1-0.6-0.2-1-0.4V10c0.3-0.3,1.1-1,1.2-2.3c0.2-0.1,0.3-0.4,0.4-0.7c0.1-0.5,0.1-1.2-0.3-1.6c0-0.1,0-0.1,0.1-0.2c0.3-0.7,0.9-2.1,0.6-3.2c-.3-1.3-2.2-1.8-3.7-1.8c-1.2,0-2.7,0.3-3.1,1.1C6.4,1.4,6,1.6,5.8,1.9C5.1,2.8,5.6,4.4,5.8,5.3c0,0,0,0.1,0,0.1C5.5,5.8,5.4,6.5,5.5,7c0.1,0.3,0.2,0.6,0.4,0.7C6,9,6.7,9.7,7.1,10v1.9c-0.3,0.1-0.6,0.2-1,.4c-2.7,1-4.6,1.7-5.2,2.8c-0.8,1.6-0.8,3.3-0.8,3.3c0,0.2,0.2,0.4,0.4,0.4h13.4C14.6,17.3,15.9,15.9,17.9,15.2z" /><path d="M23.7,16.9l-3.1-2.5c-0.1-0.1-0.2-0.1-0.3,0c-0.1,0.1-0.2,0.2-0.2,0.3v0.9C14.1,15.8,14,22.9,14,23c0,0.2,0.1,0.3,0.3,0.3c0,0,0,0,0,0c0.1,0,0.3-0.1,0.3-0.2c0-0.2,0.9-4.2,5.5-4.4v0.9c0,0.1,0.1,0.2,0.2,0.3c0.1,0.1,0.2,0,0.3,0l3.1-2.5c0.1-0.1,0.1-0.1,0.1-0.2C23.9,17,23.8,16.9,23.7,16.9z" /></symbol></svg>